<svg width="25" height="25" viewBox="0 0 25 25" fill="none" xmlns="http://www.w3.org/2000/svg">
<path d="M8.73351 2.58247L7.83726 2.85247C7.03923 3.09313 6.32656 3.55675 5.78312 4.18877C5.23969 4.82078 4.8881 5.59489 4.76976 6.41997C4.39851 9.00497 5.22851 12.0275 7.22976 15.4937C9.22601 18.9512 11.4235 21.1787 13.8423 22.1537C14.6194 22.4669 15.4702 22.5504 16.2934 22.3942C17.1166 22.238 17.8776 21.8486 18.486 21.2725L19.1635 20.63C19.6034 20.2136 19.8772 19.6517 19.934 19.0486C19.9908 18.4456 19.8267 17.8424 19.4723 17.3512L17.7773 15.0012C17.5481 14.684 17.2254 14.4464 16.8544 14.3217C16.4834 14.1971 16.0827 14.1917 15.7085 14.3062L13.1448 15.09L13.0785 15.1025C12.796 15.1437 12.1435 14.5325 11.331 13.125C10.481 11.6525 10.306 10.7912 10.5398 10.5687L11.8435 9.35247C12.3203 8.90805 12.646 8.32552 12.7749 7.68662C12.9038 7.04771 12.8294 6.38448 12.5623 5.78997L11.7348 3.95122C11.4859 3.3979 11.0444 2.95394 10.4924 2.70211C9.94046 2.45028 9.3145 2.40776 8.73351 2.58247ZM10.5973 4.46372L11.4223 6.30247C11.5829 6.65901 11.6279 7.05693 11.5507 7.44032C11.4736 7.82371 11.2783 8.1733 10.9923 8.43997L9.68476 9.65747C8.84726 10.45 9.12476 11.8025 10.2498 13.75C11.3073 15.5825 12.2723 16.4875 13.3098 16.33L13.4648 16.2975L16.0748 15.5012C16.1995 15.4629 16.3331 15.4646 16.4569 15.5061C16.5806 15.5475 16.6883 15.6267 16.7648 15.7325L18.4598 18.0825C18.6372 18.328 18.7195 18.6297 18.6912 18.9314C18.6629 19.233 18.526 19.5142 18.306 19.7225L17.6273 20.365C17.1927 20.7763 16.6492 21.0541 16.0613 21.1656C15.4735 21.277 14.866 21.2174 14.311 20.9937C12.1885 20.1387 10.1823 18.105 8.31351 14.8687C6.43976 11.625 5.68101 8.86622 6.00726 6.59747C6.09171 6.00801 6.34282 5.45495 6.73103 5.0034C7.11924 4.55186 7.62838 4.22063 8.19851 4.04872L9.09476 3.77872C9.38533 3.69141 9.69774 3.71276 9.97373 3.83879C10.2497 3.96483 10.4705 4.18695 10.5948 4.46372" fill="white"/>
</svg>
