<svg width="10" height="10" viewBox="0 0 10 10" fill="none" xmlns="http://www.w3.org/2000/svg">
<path d="M7.28342 3.51313C7.57533 3.51313 7.81196 3.2765 7.81196 2.98459C7.81196 2.69269 7.57533 2.45605 7.28342 2.45605C6.99152 2.45605 6.75488 2.69269 6.75488 2.98459C6.75488 3.2765 6.99152 3.51313 7.28342 3.51313Z" fill="#EEDBB0"/>
<path fill-rule="evenodd" clip-rule="evenodd" d="M2.79785 5.24619C2.79785 6.46073 3.78556 7.44844 5.0001 7.44844C6.21464 7.44844 7.20235 6.46073 7.20235 5.24619C7.20235 4.03165 6.21464 3.04395 5.0001 3.04395C3.78556 3.04395 2.79785 4.03165 2.79785 5.24619ZM3.89844 5.24614C3.89844 4.63887 4.39229 4.14502 4.99956 4.14502C5.60683 4.14502 6.10069 4.63887 6.10069 5.24614C6.10069 5.85341 5.60683 6.34727 4.99956 6.34727C4.39229 6.34727 3.89844 5.85341 3.89844 5.24614Z" fill="#EEDBB0"/>
<path fill-rule="evenodd" clip-rule="evenodd" d="M2.79795 9.65079H7.20245C8.3344 9.65079 9.4047 8.5805 9.4047 7.44854V3.04405C9.4047 1.91209 8.3344 0.841797 7.20245 0.841797H2.79795C1.666 0.841797 0.595703 1.91209 0.595703 3.04405V7.44854C0.595703 8.5805 1.666 9.65079 2.79795 9.65079ZM1.69629 3.044C1.69629 2.52922 2.28264 1.94287 2.79741 1.94287H7.20191C7.71669 1.94287 8.30303 2.52922 8.30303 3.044V7.44849C8.30303 7.96327 7.71669 8.54962 7.20191 8.54962H2.79741C2.27273 8.54962 1.69629 7.97318 1.69629 7.44849V3.044Z" fill="#EEDBB0"/>
</svg>
