<svg width="19" height="15" viewBox="0 0 19 15" fill="none" xmlns="http://www.w3.org/2000/svg">
<path d="M0.5 0.5V0C0.367392 0 0.240215 0.0526785 0.146447 0.146447C0.0526785 0.240215 0 0.367392 0 0.5H0.5ZM18.5 0.5H19C19 0.367392 18.9473 0.240215 18.8536 0.146447C18.7598 0.0526785 18.6326 0 18.5 0V0.5ZM0.5 1H18.5V0H0.5V1ZM18 0.5V12.5H19V0.5H18ZM16.5 14H2.5V15H16.5V14ZM1 12.5V0.5H0V12.5H1ZM2.5 14C2.10218 14 1.72064 13.842 1.43934 13.5607C1.15804 13.2794 1 12.8978 1 12.5H0C0 13.163 0.263392 13.7989 0.732233 14.2678C1.20107 14.7366 1.83696 15 2.5 15V14ZM18 12.5C18 12.8978 17.842 13.2794 17.5607 13.5607C17.2794 13.842 16.8978 14 16.5 14V15C17.163 15 17.7989 14.7366 18.2678 14.2678C18.7366 13.7989 19 13.163 19 12.5H18Z" fill="white"/>
<path d="M0.5 0.5L9.5 9.5L18.5 0.5" stroke="white" stroke-linecap="round" stroke-linejoin="round"/>
</svg>
