<svg width="12" height="8" viewBox="0 0 12 8" fill="none" xmlns="http://www.w3.org/2000/svg">
<path fill-rule="evenodd" clip-rule="evenodd" d="M10.3377 0.752C10.8019 0.874881 11.1676 1.23501 11.2922 1.69143C11.5235 2.52447 11.5127 4.26131 11.5127 4.26131C11.5127 4.26131 11.511 5.98856 11.2868 6.82107C11.1605 7.27696 10.7933 7.63656 10.3296 7.75891C9.48125 7.97701 6.08744 7.97329 6.08744 7.97329C6.08744 7.97329 2.70285 7.96957 1.84587 7.74082C1.38108 7.61794 1.01543 7.25781 0.890834 6.80192C0.668733 5.97739 0.670899 4.24109 0.670899 4.24109C0.670899 4.24109 0.673067 2.5133 0.896793 1.68026C1.02247 1.22438 1.39841 0.856263 1.85345 0.734445C2.70231 0.515812 6.09557 0.519535 6.09557 0.519535C6.09557 0.519535 9.48938 0.523259 10.3377 0.752ZM5.01267 2.65011L5.00997 5.84184L7.83335 4.24863L5.01267 2.65011Z" fill="#EEDBB0"/>
</svg>
